<?xml version="1.0" ?><svg viewBox="0 0 32 32" xmlns="http://www.w3.org/2000/svg"><title/><g id="Camera"><path d="M29.53,15.26a1,1,0,0,0-1,0l-2,1a1,1,0,0,0-.55.89H23V15.32a2.21,2.21,0,0,0-2.21-2.21H15a3,3,0,0,0,0-.31V11.42a2.32,2.32,0,0,0-2.31-2.31H4.31A2.32,2.32,0,0,0,2,11.42V12.8a2.27,2.27,0,0,0,.39,1.28A2.12,2.12,0,0,0,2,15.32V22.9a2.21,2.21,0,0,0,2.21,2.21H20.79A2.21,2.21,0,0,0,23,22.9V21.11h3a1,1,0,0,0,.55.9l2,1a1,1,0,0,0,1-.05,1,1,0,0,0,.47-.85v-6A1,1,0,0,0,29.53,15.26ZM4,11.42a.31.31,0,0,1,.31-.31h8.38a.31.31,0,0,1,.31.31V12.8a.31.31,0,0,1-.31.31H4.31A.31.31,0,0,1,4,12.8ZM21,22.9a.21.21,0,0,1-.21.21H4.21A.21.21,0,0,1,4,22.9V15.32a.21.21,0,0,1,.21-.21H20.79a.21.21,0,0,1,.21.21V22.9Z"/><path d="M19,20.11H7a1,1,0,0,0,0,2H19a1,1,0,0,0,0-2Z"/><path d="M17,12.11h5.39a2.61,2.61,0,0,0,0-5.22H17a1,1,0,0,0-1,1v3.22A1,1,0,0,0,17,12.11Zm1-3.22h4.39a.61.61,0,0,1,0,1.22H18Z"/></g></svg>